<svg xmlns="http://www.w3.org/2000/svg" width="21.247" height="18.425" viewBox="0 0 21.247 18.425">
    <g id="Group_106" data-name="Group 106" transform="translate(0.591 0.707)">
        <path id="Path_13134" data-name="Path 13134" d="M31.428,18.514c.588.526,1.083,1.036,1.454,1.438a1.546,1.546,0,0,1,0,2.072c-1.624,1.747-5.32,5.15-9.634,5.15h-.619" transform="translate(-13.214 -12.483)" fill="none" stroke="#000" stroke-linecap="round" stroke-linejoin="round" stroke-width="1" />
        <path id="Path_13135" data-name="Path 13135" d="M6.949,21.312a19.176,19.176,0,0,1-4.794-3.8,1.546,1.546,0,0,1,0-2.072c1.624-1.747,5.32-5.15,9.634-5.15a10.145,10.145,0,0,1,4.84,1.345" transform="translate(-1.757 -7.966)" fill="none" stroke="#000" stroke-linecap="round" stroke-linejoin="round" stroke-width="1" />
        <line id="Line_36" data-name="Line 36" x1="17.011" y2="17.011" transform="translate(1.527)" fill="none" stroke="#000" stroke-linecap="round" stroke-linejoin="round" stroke-width="1" />
        <path id="Path_13136" data-name="Path 13136" d="M18.055,22.416a3.084,3.084,0,1,1,4.361-4.361" transform="translate(-10.203 -11.73)" fill="none" stroke="#000" stroke-linecap="round" stroke-linejoin="round" stroke-width="1" />
        <path id="Path_13137" data-name="Path 13137" d="M28.573,27.429a3.093,3.093,0,0,1-1.144,1.129" transform="translate(-15.849 -17.377)" fill="none" stroke="#000" stroke-linecap="round" stroke-linejoin="round" stroke-width="1" />
    </g>
</svg>