<svg xmlns="http://www.w3.org/2000/svg" width="15" height="18.778" viewBox="0 0 15 18.778">
    <g id="lock-line" transform="translate(-7 -2.36)">
        <path id="Path_10999" data-name="Path 10999" d="M17.269,20.59a1.583,1.583,0,0,0-.716,2.988v1.878h1.314V23.637a1.583,1.583,0,0,0-.6-3.047Z" transform="translate(-2.707 -7.764)" />
        <path id="Path_11000" data-name="Path 11000" d="M19.955,9.862V7.321c.061-2.679-2.377-4.9-5.455-4.961-3.077.065-5.516,2.283-5.455,4.961v2.54H7V19.951a1.285,1.285,0,0,0,1.364,1.187H20.636A1.285,1.285,0,0,0,22,19.951V9.862Zm-9.545-2.54A3.943,3.943,0,0,1,14.5,3.547a3.943,3.943,0,0,1,4.091,3.775v2.54H10.409ZM8.364,19.951v-8.9H20.636v8.9Z" transform="translate(0 0)" />
    </g>
</svg>